<svg width="256" height="142" viewBox="0 0 256 142" fill="none" xmlns="http://www.w3.org/2000/svg">
<path d="M25.6813 49.91C28.1413 49.91 30.5413 50.27 32.8813 50.99C35.2813 51.65 37.3513 52.67 39.0913 54.05C40.8913 52.85 42.9013 51.86 45.1213 51.08C47.4013 50.3 50.1313 49.91 53.3113 49.91C55.5913 49.91 57.8113 50.21 59.9713 50.81C62.1913 51.41 64.1413 52.37 65.8213 53.69C67.5613 54.95 68.9413 56.66 69.9613 58.82C70.9813 60.92 71.4913 63.5 71.4913 66.56V94.91C70.8913 95.09 69.9313 95.27 68.6113 95.45C67.3513 95.63 66.0313 95.72 64.6513 95.72C63.3313 95.72 62.1313 95.63 61.0513 95.45C60.0313 95.27 59.1613 94.91 58.4413 94.37C57.7213 93.83 57.1513 93.11 56.7313 92.21C56.3713 91.25 56.1913 90.02 56.1913 88.52V67.01C56.1913 65.21 55.6813 63.92 54.6613 63.14C53.6413 62.3 52.2613 61.88 50.5213 61.88C49.6813 61.88 48.7813 62.09 47.8213 62.51C46.8613 62.87 46.1413 63.26 45.6613 63.68C45.7213 63.92 45.7513 64.16 45.7513 64.4C45.7513 64.58 45.7513 64.76 45.7513 64.94V94.91C45.0913 95.09 44.1013 95.27 42.7813 95.45C41.5213 95.63 40.2313 95.72 38.9113 95.72C37.5913 95.72 36.3913 95.63 35.3113 95.45C34.2913 95.27 33.4213 94.91 32.7013 94.37C31.9813 93.83 31.4113 93.11 30.9913 92.21C30.6313 91.25 30.4513 90.02 30.4513 88.52V67.01C30.4513 65.21 29.8813 63.92 28.7413 63.14C27.6613 62.3 26.3413 61.88 24.7813 61.88C23.7013 61.88 22.7713 62.06 21.9913 62.42C21.2113 62.72 20.5513 63.02 20.0113 63.32V94.91C19.4113 95.09 18.4513 95.27 17.1313 95.45C15.8713 95.63 14.5513 95.72 13.1713 95.72C11.8513 95.72 10.6513 95.63 9.57125 95.45C8.55125 95.27 7.68125 94.91 6.96125 94.37C6.24125 93.83 5.67125 93.11 5.25125 92.21C4.89125 91.25 4.71125 90.02 4.71125 88.52V61.34C4.71125 59.72 5.04125 58.43 5.70125 57.47C6.42125 56.51 7.38125 55.61 8.58125 54.77C10.6213 53.33 13.1413 52.16 16.1413 51.26C19.2013 50.36 22.3813 49.91 25.6813 49.91ZM126.095 73.13C126.095 76.85 125.525 80.18 124.385 83.12C123.245 86 121.625 88.43 119.525 90.41C117.485 92.39 115.025 93.89 112.145 94.91C109.265 95.93 106.055 96.44 102.515 96.44C98.9745 96.44 95.7645 95.9 92.8845 94.82C90.0045 93.74 87.5145 92.21 85.4145 90.23C83.3745 88.19 81.7845 85.73 80.6445 82.85C79.5045 79.97 78.9345 76.73 78.9345 73.13C78.9345 69.59 79.5045 66.38 80.6445 63.5C81.7845 60.62 83.3745 58.19 85.4145 56.21C87.5145 54.17 90.0045 52.61 92.8845 51.53C95.7645 50.45 98.9745 49.91 102.515 49.91C106.055 49.91 109.265 50.48 112.145 51.62C115.025 52.7 117.485 54.26 119.525 56.3C121.625 58.28 123.245 60.71 124.385 63.59C125.525 66.47 126.095 69.65 126.095 73.13ZM94.5945 73.13C94.5945 76.79 95.2845 79.61 96.6645 81.59C98.1045 83.51 100.085 84.47 102.605 84.47C105.125 84.47 107.045 83.48 108.365 81.5C109.745 79.52 110.435 76.73 110.435 73.13C110.435 69.53 109.745 66.77 108.365 64.85C106.985 62.87 105.035 61.88 102.515 61.88C99.9945 61.88 98.0445 62.87 96.6645 64.85C95.2845 66.77 94.5945 69.53 94.5945 73.13ZM133.199 39.11C133.199 36.83 133.949 34.91 135.449 33.35C137.009 31.79 139.049 31.01 141.569 31.01C144.089 31.01 146.099 31.79 147.599 33.35C149.159 34.91 149.939 36.83 149.939 39.11C149.939 41.39 149.159 43.31 147.599 44.87C146.099 46.43 144.089 47.21 141.569 47.21C139.049 47.21 137.009 46.43 135.449 44.87C133.949 43.31 133.199 41.39 133.199 39.11ZM149.219 94.91C148.559 95.03 147.569 95.18 146.249 95.36C144.989 95.6 143.699 95.72 142.379 95.72C141.059 95.72 139.859 95.63 138.779 95.45C137.759 95.27 136.889 94.91 136.169 94.37C135.449 93.83 134.879 93.11 134.459 92.21C134.099 91.25 133.919 90.02 133.919 88.52V51.89C134.579 51.77 135.539 51.62 136.799 51.44C138.119 51.2 139.439 51.08 140.759 51.08C142.079 51.08 143.249 51.17 144.269 51.35C145.349 51.53 146.249 51.89 146.969 52.43C147.689 52.97 148.229 53.72 148.589 54.68C149.009 55.58 149.219 56.78 149.219 58.28V94.91ZM157.069 73.13C157.069 69.17 157.669 65.75 158.869 62.87C160.069 59.93 161.719 57.5 163.819 55.58C165.979 53.66 168.469 52.25 171.289 51.35C174.169 50.39 177.259 49.91 180.559 49.91C181.759 49.91 182.929 50.03 184.069 50.27C185.209 50.45 186.139 50.69 186.859 50.99V36.41C187.459 36.23 188.419 36.05 189.739 35.87C191.059 35.63 192.409 35.51 193.789 35.51C195.109 35.51 196.279 35.6 197.299 35.78C198.379 35.96 199.279 36.32 199.999 36.86C200.719 37.4 201.259 38.15 201.619 39.11C201.979 40.01 202.159 41.21 202.159 42.71V85.37C202.159 88.19 200.839 90.44 198.199 92.12C196.459 93.26 194.209 94.25 191.449 95.09C188.689 95.99 185.509 96.44 181.909 96.44C178.009 96.44 174.499 95.9 171.379 94.82C168.319 93.74 165.709 92.18 163.549 90.14C161.449 88.1 159.829 85.67 158.689 82.85C157.609 79.97 157.069 76.73 157.069 73.13ZM182.629 61.88C179.389 61.88 176.899 62.81 175.159 64.67C173.419 66.53 172.549 69.35 172.549 73.13C172.549 76.85 173.359 79.67 174.979 81.59C176.599 83.45 178.939 84.38 181.999 84.38C183.079 84.38 184.039 84.23 184.879 83.93C185.779 83.57 186.469 83.18 186.949 82.76V62.96C185.749 62.24 184.309 61.88 182.629 61.88ZM230.414 85.28C231.434 85.28 232.544 85.19 233.744 85.01C235.004 84.77 235.934 84.47 236.534 84.11V76.91L230.054 77.45C228.374 77.57 226.994 77.93 225.914 78.53C224.834 79.13 224.294 80.03 224.294 81.23C224.294 82.43 224.744 83.42 225.644 84.2C226.604 84.92 228.194 85.28 230.414 85.28ZM229.694 49.91C232.934 49.91 235.874 50.24 238.514 50.9C241.214 51.56 243.494 52.58 245.354 53.96C247.274 55.28 248.744 56.99 249.764 59.09C250.784 61.13 251.294 63.56 251.294 66.38V86.54C251.294 88.1 250.844 89.39 249.944 90.41C249.104 91.37 248.084 92.21 246.884 92.93C242.984 95.27 237.494 96.44 230.414 96.44C227.234 96.44 224.354 96.14 221.774 95.54C219.254 94.94 217.064 94.04 215.204 92.84C213.404 91.64 211.994 90.11 210.974 88.25C210.014 86.39 209.534 84.23 209.534 81.77C209.534 77.63 210.764 74.45 213.224 72.23C215.684 70.01 219.494 68.63 224.654 68.09L236.444 66.83V66.2C236.444 64.46 235.664 63.23 234.104 62.51C232.604 61.73 230.414 61.34 227.534 61.34C225.254 61.34 223.034 61.58 220.874 62.06C218.714 62.54 216.764 63.14 215.024 63.86C214.244 63.32 213.584 62.51 213.044 61.43C212.504 60.29 212.234 59.12 212.234 57.92C212.234 56.36 212.594 55.13 213.314 54.23C214.094 53.27 215.264 52.46 216.824 51.8C218.564 51.14 220.604 50.66 222.944 50.36C225.344 50.06 227.594 49.91 229.694 49.91Z" fill="#BE9FE1"/>
<circle cx="24.25" cy="37.25" r="8.25" fill="#BE9FE1"/>
<circle cx="51.25" cy="37.25" r="8.25" fill="#BE9FE1"/>
</svg>
